<svg width="56" height="64" viewBox="0 0 56 64" fill="none" xmlns="http://www.w3.org/2000/svg">
<path fill-rule="evenodd" clip-rule="evenodd" d="M52.8008 60L52.8008 17.8136C52.8008 17.605 52.7193 17.4045 52.5736 17.2551L39.1053 3.44151C38.9547 3.28708 38.7482 3.19999 38.5325 3.19999L4.00078 3.19999C3.55896 3.19999 3.20078 3.55816 3.20078 3.99999L3.20078 60C3.20078 60.4418 3.55895 60.8 4.00078 60.8H52.0008C52.4426 60.8 52.8008 60.4418 52.8008 60ZM55.2008 17.8136V60C55.2008 61.7673 53.7681 63.2 52.0008 63.2H4.00078C2.23347 63.2 0.800782 61.7673 0.800782 60L0.800781 3.99999C0.800781 2.23268 2.23347 0.799988 4.00078 0.799988L38.5325 0.799988C39.3952 0.799988 40.2214 1.14835 40.8237 1.76607L54.292 15.5797C54.8747 16.1773 55.2008 16.979 55.2008 17.8136Z" fill="#999999"/>
<path fill-rule="evenodd" clip-rule="evenodd" d="M21.8493 14.1515C22.3179 14.6201 22.3179 15.3799 21.8493 15.8485L13.8493 23.8485C13.3807 24.3171 12.6209 24.3171 12.1523 23.8485C11.6836 23.3799 11.6836 22.6201 12.1523 22.1515L20.1523 14.1515C20.6209 13.6828 21.3807 13.6828 21.8493 14.1515Z" fill="#999999"/>
<path fill-rule="evenodd" clip-rule="evenodd" d="M21.8493 23.8485C21.3807 24.3171 20.6209 24.3171 20.1523 23.8485L12.1523 15.8485C11.6836 15.3799 11.6836 14.6201 12.1523 14.1515C12.6209 13.6828 13.3807 13.6828 13.8493 14.1515L21.8493 22.1515C22.3179 22.6201 22.3179 23.3799 21.8493 23.8485Z" fill="#999999"/>
<path fill-rule="evenodd" clip-rule="evenodd" d="M40.0008 47.2H16.0008C15.338 47.2 14.8008 46.6627 14.8008 46C14.8008 45.3372 15.338 44.8 16.0008 44.8H40.0008C40.6635 44.8 41.2008 45.3373 41.2008 46C41.2008 46.6627 40.6635 47.2 40.0008 47.2Z" fill="#999999"/>
<path fill-rule="evenodd" clip-rule="evenodd" d="M36.9258 17.625V2.74999H39.3258V17.425H54.0008V19.825H39.1258C37.9108 19.825 36.9258 18.84 36.9258 17.625Z" fill="#999999"/>
</svg>
