<svg width="32" height="32" viewBox="0 0 32 32" fill="none" xmlns="http://www.w3.org/2000/svg">
<path fill-rule="evenodd" clip-rule="evenodd" d="M19.5714 19.2C21.9068 19.2 23.8 21.0932 23.8 23.4286C23.8 24.186 23.1859 24.8 22.4285 24.8L9.57138 24.8C8.81396 24.8 8.19995 24.186 8.19995 23.4286C8.19995 21.0932 10.0931 19.2 12.4285 19.2L19.5714 19.2ZM22.1902 23.2C22.0743 21.8553 20.9461 20.8 19.5714 20.8H12.4285C11.0538 20.8 9.92558 21.8553 9.80975 23.2L22.1902 23.2Z" fill="#222222"/>
<path fill-rule="evenodd" clip-rule="evenodd" d="M16 15.4C17.8777 15.4 19.4 13.8778 19.4 12C19.4 10.1222 17.8777 8.6 16 8.6C14.1222 8.6 12.6 10.1222 12.6 12C12.6 13.8778 14.1222 15.4 16 15.4ZM16 17C18.7614 17 21 14.7614 21 12C21 9.23858 18.7614 7 16 7C13.2385 7 11 9.23858 11 12C11 14.7614 13.2385 17 16 17Z" fill="#222222"/>
</svg>
