<svg width="6" height="9" viewBox="0 0 6 9" fill="none" xmlns="http://www.w3.org/2000/svg">
<path d="M4.86875 5.16168C5.17787 4.85255 5.17787 4.44038 4.86875 4.13126C3.94137 3.20387 2.18965 1.45216 1.26227 0.524775C0.953141 0.215649 0.540972 0.215649 0.231845 0.524775C-0.0772817 0.833902 -0.0772817 1.24607 0.231845 1.5552C1.15923 2.48258 2.91094 4.2343 3.83832 5.16168C4.14745 5.4708 4.55962 5.4708 4.86875 5.16168Z" fill="#222222"/>
<path d="M4.86875 4.13126C4.55962 3.82213 4.14745 3.82213 3.83832 4.13125C2.91094 5.05863 1.15923 6.81035 0.231845 7.73773C-0.0772817 8.04686 -0.0772817 8.45903 0.231845 8.76815C0.540972 9.07728 0.953141 9.07728 1.26227 8.76815C2.18965 7.84077 3.94137 6.08906 4.86875 5.16168C5.17787 4.85255 5.17787 4.44038 4.86875 4.13126Z" fill="#222222"/>
</svg>
