<svg width="6" height="8" viewBox="0 0 6 8" fill="none" xmlns="http://www.w3.org/2000/svg">
<path d="M0.595342 3.52663C0.311318 3.81065 0.311318 4.18935 0.595342 4.47337C1.44741 5.32544 3.05688 6.93491 3.90895 7.78698C4.19298 8.07101 4.57167 8.07101 4.8557 7.78698C5.13972 7.50296 5.13972 7.12426 4.8557 6.84024C4.00363 5.98816 2.39416 4.3787 1.54209 3.52663C1.25806 3.2426 0.879366 3.2426 0.595342 3.52663Z" fill="#666666"/>
<path d="M0.595342 4.47337C0.879366 4.75739 1.25806 4.7574 1.54209 4.47337C2.39416 3.6213 4.00363 2.01184 4.8557 1.15976C5.13972 0.87574 5.13972 0.497042 4.8557 0.213018C4.57168 -0.0710059 4.19298 -0.071006 3.90895 0.213018C3.05688 1.06509 1.44741 2.67455 0.595342 3.52663C0.311318 3.81065 0.311318 4.18935 0.595342 4.47337Z" fill="#666666"/>
</svg>
