<svg width="35" height="21" viewBox="0 0 35 21" fill="none" xmlns="http://www.w3.org/2000/svg">
<path fill-rule="evenodd" clip-rule="evenodd" d="M0.556452 17.992C0.556452 16.9676 1.38689 16.1372 2.41129 16.1372L32.0887 16.1372C33.1131 16.1372 33.9436 16.9676 33.9436 17.992C33.9436 19.0164 33.1131 19.8468 32.0887 19.8468L2.41129 19.8468C1.38689 19.8468 0.556452 19.0164 0.556452 17.992Z" fill="#999999"/>
<path fill-rule="evenodd" clip-rule="evenodd" d="M7.60586e-07 17.992C8.93255e-07 16.6603 1.07957 15.5807 2.41129 15.5807L32.0887 15.5807C33.4204 15.5807 34.5 16.6603 34.5 17.992C34.5 19.3237 33.4204 20.4033 32.0887 20.4033L2.41129 20.4033C1.07957 20.4033 6.27918e-07 19.3237 7.60586e-07 17.992ZM2.41129 16.6936C1.69421 16.6936 1.1129 17.2749 1.1129 17.992C1.1129 18.7091 1.69421 19.2904 2.41129 19.2904L32.0887 19.2904C32.8058 19.2904 33.3871 18.7091 33.3871 17.992C33.3871 17.2749 32.8058 16.6936 32.0887 16.6936L2.41129 16.6936Z" fill="#999999"/>
<path fill-rule="evenodd" clip-rule="evenodd" d="M0.556452 2.41129C0.556452 1.38689 1.38689 0.556452 2.41129 0.556452L32.0887 0.556453C33.1131 0.556453 33.9436 1.38689 33.9436 2.41129C33.9436 3.43569 33.1131 4.26613 32.0887 4.26613L2.41129 4.26613C1.38689 4.26613 0.556451 3.43569 0.556452 2.41129Z" fill="#999999"/>
<path fill-rule="evenodd" clip-rule="evenodd" d="M0 2.41129C1.32668e-07 1.07957 1.07957 -1.32668e-07 2.41129 0L32.0887 1.06135e-06C33.4204 1.19402e-06 34.5 1.07958 34.5 2.41129C34.5 3.74301 33.4204 4.82258 32.0887 4.82258L2.41129 4.82258C1.07957 4.82258 -1.32668e-07 3.74301 0 2.41129ZM2.41129 1.1129C1.69421 1.1129 1.1129 1.69421 1.1129 2.41129C1.1129 3.12837 1.69421 3.70968 2.41129 3.70968L32.0887 3.70968C32.8058 3.70968 33.3871 3.12837 33.3871 2.41129C33.3871 1.69421 32.8058 1.1129 32.0887 1.1129L2.41129 1.1129Z" fill="#999999"/>
</svg>
