<svg width="35" height="35" viewBox="0 0 35 35" fill="none" xmlns="http://www.w3.org/2000/svg">
<path fill-rule="evenodd" clip-rule="evenodd" d="M0.556452 17.8683C0.556452 16.8439 1.38689 16.0134 2.41129 16.0134L32.0887 16.0134C33.1131 16.0134 33.9436 16.8439 33.9436 17.8683C33.9436 18.8927 33.1131 19.7231 32.0887 19.7231L2.41129 19.7231C1.38689 19.7231 0.556451 18.8927 0.556452 17.8683Z" fill="#999999"/>
<path fill-rule="evenodd" clip-rule="evenodd" d="M17.25 0.556452C18.2744 0.556452 19.1048 1.38689 19.1048 2.41129L19.1048 32.0887C19.1048 33.1131 18.2744 33.9436 17.25 33.9436C16.2256 33.9436 15.3952 33.1131 15.3952 32.0887L15.3952 2.41129C15.3952 1.38689 16.2256 0.556451 17.25 0.556452Z" fill="#999999"/>
<path fill-rule="evenodd" clip-rule="evenodd" d="M14.8387 2.41129C14.8387 1.07957 15.9183 -1.99003e-07 17.25 0C18.5817 1.65836e-07 19.6613 1.07957 19.6613 2.41129V15.457H32.0887C33.4204 15.457 34.5 16.5366 34.5 17.8683C34.5 19.2 33.4204 20.2796 32.0887 20.2796H19.6613V32.0887C19.6613 33.4204 18.5817 34.5 17.25 34.5C15.9183 34.5 14.8387 33.4204 14.8387 32.0887L14.8387 20.2796H2.41129C1.07957 20.2796 -1.32668e-07 19.2 0 17.8683C1.32668e-07 16.5366 1.07957 15.457 2.41129 15.457H14.8387L14.8387 2.41129ZM14.8387 16.5699H2.41129C1.69421 16.5699 1.1129 17.1512 1.1129 17.8683C1.1129 18.5854 1.69421 19.1667 2.41129 19.1667H14.8387V16.5699ZM15.9516 19.1667V16.5699L18.5484 16.5699L18.5484 19.1667L15.9516 19.1667ZM15.9516 20.2796L15.9516 32.0887C15.9516 32.8058 16.5329 33.3871 17.25 33.3871C17.9671 33.3871 18.5484 32.8058 18.5484 32.0887V20.2796L15.9516 20.2796ZM19.6613 19.1667H32.0887C32.8058 19.1667 33.3871 18.5854 33.3871 17.8683C33.3871 17.1512 32.8058 16.5699 32.0887 16.5699H19.6613L19.6613 19.1667ZM18.5484 15.457L15.9516 15.457L15.9516 2.41129C15.9516 1.69421 16.5329 1.1129 17.25 1.1129C17.9671 1.1129 18.5484 1.69421 18.5484 2.41129V15.457Z" fill="#999999"/>
</svg>
