<svg width="5" height="8" viewBox="0 0 5 8" fill="none" xmlns="http://www.w3.org/2000/svg">
<path d="M4.08545 4.08545C4.34485 3.82606 4.34485 3.4802 4.08545 3.22081C3.30727 2.44263 1.83737 0.972727 1.05919 0.194545C0.799798 -0.0648485 0.453939 -0.0648485 0.194545 0.194545C-0.0648485 0.453939 -0.0648485 0.799798 0.194545 1.05919C0.972727 1.83737 2.44263 3.30727 3.22081 4.08545C3.4802 4.34485 3.82606 4.34485 4.08545 4.08545Z" fill="#999999"/>
<path d="M4.08545 3.22081C3.82606 2.96141 3.4802 2.96141 3.22081 3.2208C2.44263 3.99898 0.972727 5.46888 0.194545 6.24706C-0.0648485 6.50646 -0.0648485 6.85232 0.194545 7.11171C0.453939 7.3711 0.799798 7.3711 1.05919 7.11171C1.83737 6.33353 3.30727 4.86364 4.08545 4.08545C4.34485 3.82606 4.34485 3.4802 4.08545 3.22081Z" fill="#999999"/>
</svg>
