<svg width="8" height="14" viewBox="0 0 8 14" fill="none" xmlns="http://www.w3.org/2000/svg">
<path d="M7.63636 7.63636C8.12121 7.15152 8.12121 6.50505 7.63636 6.0202C6.18182 4.56566 3.43434 1.81818 1.9798 0.363636C1.49495 -0.121212 0.848485 -0.121212 0.363636 0.363636C-0.121212 0.848485 -0.121212 1.49495 0.363636 1.9798C1.81818 3.43434 4.56566 6.18182 6.0202 7.63636C6.50505 8.12121 7.15152 8.12121 7.63636 7.63636Z" fill="#222222"/>
<path d="M7.63636 6.0202C7.15152 5.53535 6.50505 5.53535 6.0202 6.0202C4.56566 7.47475 1.81818 10.2222 0.363636 11.6768C-0.121212 12.1616 -0.121212 12.8081 0.363636 13.2929C0.848485 13.7778 1.49495 13.7778 1.9798 13.2929C3.43434 11.8384 6.18182 9.09091 7.63636 7.63636C8.12121 7.15152 8.12121 6.50505 7.63636 6.0202Z" fill="#222222"/>
</svg>
