<svg width="15" height="11" viewBox="0 0 15 11" fill="none" xmlns="http://www.w3.org/2000/svg">
<path d="M1.51067 9.92718C1.51067 10.2939 1.19862 10.6149 0.79055 10.6149C0.382485 10.6149 0.0704346 10.2939 0.0704346 9.92718C0.0704346 9.53749 0.382485 9.23949 0.79055 9.23949C1.19862 9.23949 1.51067 9.53749 1.51067 9.92718ZM13.4097 9.23949H4.18538C3.77732 9.23949 3.46527 9.53749 3.46527 9.92718C3.46527 10.2939 3.77732 10.6149 4.18538 10.6149H13.4097C13.8178 10.6149 14.1298 10.2939 14.1298 9.92718C14.1298 9.53749 13.8178 9.23949 13.4097 9.23949ZM0.79055 4.6549C0.382485 4.6549 0.0704346 4.9529 0.0704346 5.34259C0.0704346 5.70936 0.382485 6.03028 0.79055 6.03028C1.19862 6.03028 1.51067 5.70936 1.51067 5.34259C1.51067 4.9529 1.19862 4.6549 0.79055 4.6549ZM13.4097 4.6549H4.18538C3.77732 4.6549 3.46527 4.9529 3.46527 5.34259C3.46527 5.70936 3.77732 6.03028 4.18538 6.03028H13.4097C13.8178 6.03028 14.1298 5.70936 14.1298 5.34259C14.1298 4.9529 13.8178 4.6549 13.4097 4.6549ZM0.79055 0.0703125C0.382485 0.0703125 0.0704346 0.368311 0.0704346 0.758001C0.0704346 1.12477 0.382485 1.44569 0.79055 1.44569C1.19862 1.44569 1.51067 1.12477 1.51067 0.758001C1.51067 0.368311 1.19862 0.0703125 0.79055 0.0703125ZM4.18538 1.44569H13.4097C13.8178 1.44569 14.1298 1.12477 14.1298 0.758001C14.1298 0.368311 13.8178 0.0703125 13.4097 0.0703125H4.18538C3.77732 0.0703125 3.46527 0.368311 3.46527 0.758001C3.46527 1.12477 3.77732 1.44569 4.18538 1.44569Z" fill="#222222"/>
<path fill-rule="evenodd" clip-rule="evenodd" d="M0 0.757985C0 0.326454 0.346611 0 0.790413 0C1.23422 0 1.58083 0.326454 1.58083 0.757985C1.58083 1.1651 1.23576 1.51597 0.790413 1.51597C0.345062 1.51597 0 1.1651 0 0.757985ZM0.790413 0.140594C0.418084 0.140594 0.140594 0.410137 0.140594 0.757985C0.140594 1.08441 0.419632 1.37538 0.790413 1.37538C1.16119 1.37538 1.44023 1.08441 1.44023 0.757985C1.44023 0.410137 1.16274 0.140594 0.790413 0.140594ZM3.39483 0.757985C3.39483 0.326454 3.74144 0 4.18525 0H13.4096C13.8534 0 14.2 0.326454 14.2 0.757985C14.2 1.1651 13.8549 1.51597 13.4096 1.51597H4.18525C3.73989 1.51597 3.39483 1.1651 3.39483 0.757985ZM4.18525 0.140594C3.81292 0.140594 3.53543 0.410137 3.53543 0.757985C3.53543 1.08441 3.81446 1.37538 4.18525 1.37538H13.4096C13.7804 1.37538 14.0594 1.08441 14.0594 0.757985C14.0594 0.410136 13.7819 0.140594 13.4096 0.140594H4.18525ZM0 5.34257C0 4.91104 0.346611 4.58459 0.790413 4.58459C1.23422 4.58459 1.58083 4.91104 1.58083 5.34257C1.58083 5.74969 1.23576 6.10056 0.790413 6.10056C0.345062 6.10056 0 5.74969 0 5.34257ZM0.790413 4.72518C0.418084 4.72518 0.140594 4.99473 0.140594 5.34257C0.140594 5.669 0.419632 5.95996 0.790413 5.95996C1.16119 5.95996 1.44023 5.669 1.44023 5.34257C1.44023 4.99473 1.16274 4.72518 0.790413 4.72518ZM3.39483 5.34257C3.39483 4.91104 3.74144 4.58459 4.18525 4.58459H13.4096C13.8534 4.58459 14.2 4.91104 14.2 5.34257C14.2 5.74969 13.8549 6.10056 13.4096 6.10056H4.18525C3.73989 6.10056 3.39483 5.74969 3.39483 5.34257ZM4.18525 4.72518C3.81292 4.72518 3.53543 4.99473 3.53543 5.34257C3.53543 5.669 3.81446 5.95996 4.18525 5.95996H13.4096C13.7804 5.95996 14.0594 5.669 14.0594 5.34257C14.0594 4.99473 13.7819 4.72518 13.4096 4.72518H4.18525ZM0.790413 9.30977C0.418084 9.30977 0.140594 9.57931 0.140594 9.92716C0.140594 10.2536 0.419632 10.5446 0.790413 10.5446C1.16119 10.5446 1.44023 10.2536 1.44023 9.92716C1.44023 9.57931 1.16274 9.30977 0.790413 9.30977ZM0 9.92716C0 9.49563 0.346611 9.16918 0.790413 9.16918C1.23422 9.16918 1.58083 9.49563 1.58083 9.92716C1.58083 10.3343 1.23576 10.6851 0.790413 10.6851C0.345062 10.6851 0 10.3343 0 9.92716ZM3.39483 9.92716C3.39483 9.49563 3.74144 9.16918 4.18525 9.16918H13.4096C13.8534 9.16918 14.2 9.49563 14.2 9.92716C14.2 10.3343 13.8549 10.6851 13.4096 10.6851H4.18525C3.73989 10.6851 3.39483 10.3343 3.39483 9.92716ZM4.18525 9.30977C3.81292 9.30977 3.53543 9.57931 3.53543 9.92716C3.53543 10.2536 3.81446 10.5446 4.18525 10.5446H13.4096C13.7804 10.5446 14.0594 10.2536 14.0594 9.92716C14.0594 9.57931 13.7819 9.30977 13.4096 9.30977H4.18525Z" fill="#222222"/>
</svg>
