<svg width="9" height="7" viewBox="0 0 9 7" fill="none" xmlns="http://www.w3.org/2000/svg">
<path d="M2.83001 5.8217C3.19964 6.19134 3.69248 6.19134 4.06211 5.8217C5.17101 4.71281 7.26559 2.61823 8.37449 1.50933C8.74412 1.1397 8.74412 0.646856 8.37449 0.277224C8.00486 -0.092408 7.51201 -0.092408 7.14238 0.277224C6.03348 1.38612 3.9389 3.4807 2.83001 4.5896C2.46037 4.95923 2.46037 5.45207 2.83001 5.8217Z" fill="white"/>
<path d="M4.06211 5.8217C4.43175 5.45207 4.43171 4.95924 4.06207 4.58961C2.95318 3.48071 2.61823 3.14575 1.50933 2.03685C1.1397 1.66722 0.646856 1.66722 0.277224 2.03685C-0.092408 2.40649 -0.092408 2.89933 0.277224 3.26896C1.38612 4.37786 1.72111 4.71281 2.83001 5.8217C3.19964 6.19134 3.69248 6.19134 4.06211 5.8217Z" fill="white"/>
</svg>
