<svg width="40" height="40" viewBox="0 0 40 40" fill="none" xmlns="http://www.w3.org/2000/svg">
<path fill-rule="evenodd" clip-rule="evenodd" d="M1 20C1 30.4934 9.50659 39 20 39C30.4934 39 39 30.4934 39 20C39 9.50659 30.4934 1 20 1C9.50659 1 1 9.50659 1 20ZM20 0C8.95431 0 0 8.95431 0 20C0 31.0457 8.95431 40 20 40C31.0457 40 40 31.0457 40 20C40 8.95431 31.0457 0 20 0Z" fill="#999999"/>
<path d="M25.3033 24.0813L20.8286 19.6066L25.3033 15.1319C25.5321 14.9031 25.5321 14.5321 25.3033 14.3033C25.0745 14.0745 24.7035 14.0745 24.4747 14.3033L20 18.778L15.5253 14.3033C15.2965 14.0745 14.9255 14.0745 14.6967 14.3033C14.4679 14.5321 14.4679 14.9031 14.6967 15.1319L19.1714 19.6066L14.6967 24.0813C14.4679 24.3101 14.4679 24.6811 14.6967 24.9099C14.9255 25.1387 15.2965 25.1387 15.5253 24.9099L20 20.4352L24.4747 24.9099C24.7035 25.1387 25.0745 25.1387 25.3033 24.9099C25.5321 24.6811 25.5321 24.3101 25.3033 24.0813Z" fill="#999999"/>
<path fill-rule="evenodd" clip-rule="evenodd" d="M24.2837 14.1124C24.618 13.7781 25.16 13.7781 25.4942 14.1124C25.8285 14.4467 25.8285 14.9886 25.4942 15.3229L21.2105 19.6066L25.4942 23.8903C25.8285 24.2246 25.8285 24.7666 25.4942 25.1008C25.16 25.4351 24.618 25.4351 24.2837 25.1008L20 20.8171L15.7163 25.1008C15.382 25.4351 14.8401 25.4351 14.5058 25.1008C14.1715 24.7666 14.1715 24.2246 14.5058 23.8903L18.7895 19.6066L14.5058 15.3229C14.1715 14.9886 14.1715 14.4467 14.5058 14.1124C14.8401 13.7781 15.382 13.7781 15.7163 14.1124L20 18.3961L24.2837 14.1124ZM25.1124 14.4942C24.989 14.3708 24.789 14.3708 24.6656 14.4942L20 19.1598L15.3344 14.4942C15.211 14.3708 15.011 14.3708 14.8876 14.4942C14.7642 14.6176 14.7642 14.8176 14.8876 14.941L19.5532 19.6066L14.8876 24.2722C14.7642 24.3956 14.7642 24.5956 14.8876 24.719C15.011 24.8424 15.211 24.8424 15.3344 24.719L20 20.0534L24.6656 24.719C24.789 24.8424 24.989 24.8424 25.1124 24.719C25.2358 24.5956 25.2358 24.3956 25.1124 24.2722L20.4468 19.6066L25.1124 14.941C25.2358 14.8176 25.2358 14.6176 25.1124 14.4942Z" fill="#999999"/>
</svg>
