<svg width="57" height="45" viewBox="0 0 57 45" fill="none" xmlns="http://www.w3.org/2000/svg">
<path fill-rule="evenodd" clip-rule="evenodd" d="M1.53846 3C0.769231 3 0 3.78095 0 4.5619C0 5.34286 0.769231 6.12381 1.53846 6.12381H5.57692L8.84615 18.619L11.1538 28.381C11.5385 29.9429 12.8846 31.1143 14.4231 31.1143H37.5C39.0385 31.1143 40.3846 30.1381 40.7692 28.5762L44.8077 14.9095C45.1923 13.9333 45 12.7619 44.2308 11.7857C43.6538 10.8095 42.5 10.419 41.5385 10.419H9.80769L8.26923 4.17143C8.26923 4.17143 8.26923 4.17143 8.26923 3.97619C7.88462 3.39048 7.30769 3 6.73077 3H1.53846ZM42.1154 13.3476L37.8846 27.7952H14.2308L10.7692 13.3476H42.1154Z" fill="#999999"/>
<path d="M18.6537 33.6524C15.7691 33.6524 13.4614 35.9952 13.4614 38.9238C13.4614 41.8524 15.7691 44 18.6537 44C21.5384 44 23.8461 41.6572 23.8461 38.7286C23.8461 35.8 21.5384 33.6524 18.6537 33.6524ZM21.1537 38.7286C21.1537 40.0952 19.9999 41.2667 18.6537 41.2667C17.3076 41.2667 16.1537 40.0952 16.1537 38.7286C16.1537 37.3619 17.3076 36.1905 18.6537 36.1905C19.9999 36.1905 21.1537 37.3619 21.1537 38.7286Z" fill="#999999"/>
<path d="M32.5 33.6524C29.6154 33.6524 27.3077 35.9953 27.3077 38.9238C27.3077 41.8524 29.6154 44.1953 32.5 44.1953C35.3846 44.1953 37.6923 41.8524 37.6923 38.9238C37.6923 35.9953 35.3846 33.6524 32.5 33.6524ZM35 38.7286C35 40.0952 33.8461 41.2667 32.5 41.2667C31.1538 41.2667 30 40.0952 30 38.7286C30 37.3619 31.1538 36.1905 32.5 36.1905C33.8461 36.1905 35 37.3619 35 38.7286Z" fill="#999999"/>
<ellipse cx="44.4999" cy="12.7322" rx="10.3261" ry="10.5179" fill="white"/>
<path d="M54.722 8.10136C54.1665 6.7787 53.3609 5.62136 52.3331 4.60181C51.3053 3.58225 50.1387 2.78314 48.8053 2.23203C47.4442 1.68092 45.9998 1.37781 44.4998 1.37781C42.9998 1.37781 41.5553 1.68092 40.1665 2.23203C38.8331 2.78314 37.6665 3.58225 36.6387 4.60181C35.6109 5.62136 34.8331 6.80625 34.2498 8.10136C33.6942 9.47914 33.3887 10.912 33.3887 12.4C33.3887 13.888 33.6942 15.3209 34.2498 16.6987C34.8053 18.0214 35.6109 19.1787 36.6387 20.1983C37.6665 21.2178 38.8331 22.0169 40.1665 22.568C41.5553 23.1191 42.9998 23.4223 44.4998 23.4223C45.9998 23.4223 47.4442 23.1191 48.8331 22.568C50.1665 22.0169 51.3331 21.2178 52.3609 20.1983C53.3887 19.1787 54.1665 17.9938 54.7498 16.6987C55.3053 15.3209 55.6109 13.888 55.6109 12.4C55.6109 10.912 55.3053 9.47914 54.722 8.10136ZM51.4165 19.2889C49.5831 21.1076 47.1109 22.1271 44.4998 22.1271C41.8887 22.1271 39.4165 21.1076 37.5831 19.2889C35.722 17.4427 34.722 14.9903 34.722 12.4C34.722 9.80981 35.7498 7.35736 37.5831 5.51114C39.4165 3.69247 41.8887 2.67292 44.4998 2.67292C47.1109 2.67292 49.5831 3.69247 51.4165 5.51114C53.2776 7.35736 54.2776 9.78225 54.2776 12.4C54.2776 15.0178 53.2776 17.4427 51.4165 19.2889Z" fill="#999999"/>
<path fill-rule="evenodd" clip-rule="evenodd" d="M40.0284 1.87095C41.4572 1.30402 42.9483 0.990295 44.4998 0.990295C46.051 0.990295 47.543 1.30387 48.9459 1.87193L48.9485 1.87295L48.9485 1.87296C50.3304 2.44416 51.538 3.27208 52.5986 4.32419C53.659 5.37608 54.4946 6.57492 55.0716 7.9483C55.6742 9.37167 55.9914 10.8565 55.9914 12.4C55.9914 13.9434 55.6742 15.4262 55.1018 16.8459L55.0988 16.8531L55.0956 16.8603C54.4953 18.1932 53.6918 19.4189 52.6264 20.4758C51.5658 21.528 50.3582 22.3559 48.9762 22.9271L48.9713 22.9291L48.9713 22.9291C47.5425 23.496 46.0513 23.8097 44.4998 23.8097C42.9483 23.8097 41.4572 23.496 40.0284 22.9291L40.0235 22.9271L40.0235 22.9271C38.6415 22.3559 37.4339 21.528 36.3733 20.4758C35.3128 19.4238 34.477 18.2247 33.9001 16.8511L33.8979 16.8459L33.8979 16.8459C33.3255 15.4262 33.0083 13.9434 33.0083 12.4C33.0083 10.8566 33.3255 9.37384 33.8979 7.95413L33.9009 7.94689L33.9041 7.93977C34.5044 6.60687 35.3079 5.38109 36.3733 4.32419C37.4339 3.27208 38.6415 2.44416 40.0235 1.87296L40.0284 1.87091L40.0284 1.87095ZM40.3071 2.5921C39.0234 3.12309 37.8985 3.89303 36.9042 4.8794C35.9159 5.85975 35.1648 7.00129 34.5988 8.25581C34.062 9.58941 33.7692 10.97 33.7692 12.4C33.7692 13.8317 34.0627 15.2138 34.6007 16.5489C35.1348 17.8195 35.9098 18.9342 36.9042 19.9206C37.8985 20.907 39.0233 21.6769 40.307 22.2079C41.6553 22.7426 43.0522 23.0347 44.4998 23.0347C45.9475 23.0347 47.3444 22.7426 48.6927 22.2079C49.9764 21.6769 51.1012 20.907 52.0955 19.9206C53.0838 18.9403 53.8349 17.7988 54.4009 16.5442C54.9376 15.2106 55.2305 13.83 55.2305 12.4C55.2305 10.9677 54.9367 9.58686 54.3727 8.2548L54.3723 8.25377C53.8382 6.98208 53.0628 5.86646 52.0678 4.8794C51.0731 3.89272 49.9478 3.1226 48.6636 2.59159C47.3447 2.05775 45.9483 1.7653 44.4998 1.7653C43.0522 1.7653 41.6553 2.05744 40.3071 2.5921ZM37.8496 5.78772C36.0871 7.56321 35.1025 9.91688 35.1025 12.4C35.1025 14.8862 36.0614 17.2383 37.8486 19.0113C39.6099 20.7585 41.9864 21.7396 44.4998 21.7396C47.0133 21.7396 49.3898 20.7585 51.1511 19.0113C52.9388 17.2379 53.8972 14.9131 53.8972 12.4C53.8972 9.88692 52.9388 7.5621 51.1511 5.78873C49.3898 4.04156 47.0133 3.06041 44.4998 3.06041C41.9869 3.06041 39.6108 4.04118 37.8496 5.78772ZM37.3178 5.23353C39.2232 3.34336 41.791 2.28541 44.4998 2.28541C47.2087 2.28541 49.7765 3.34336 51.6819 5.23353C53.6165 7.1526 54.6581 9.67756 54.6581 12.4C54.6581 15.1225 53.6165 17.6474 51.6819 19.5665C49.7765 21.4567 47.2087 22.5146 44.4998 22.5146C41.791 22.5146 39.2232 21.4567 37.3178 19.5665C35.3828 17.647 34.3416 15.0943 34.3416 12.4C34.3416 9.70319 35.4123 7.1524 37.3157 5.23557L37.3177 5.23352L37.3178 5.23353Z" fill="#999999" stroke="#999999" stroke-width="0.5"/>
<path d="M46.0489 15.7508C45.2937 15.5179 44.6742 15.5 44.4999 15.5C43.4737 15.5 42.4863 15.8046 41.6343 16.36C41.2858 16.575 41.0148 16.8079 40.8211 17.0049C40.6275 17.1841 40.6662 17.4707 40.8792 17.632C41.0535 17.7574 41.3245 17.7395 41.4794 17.5782C41.9441 17.1303 42.9703 16.342 44.4999 16.342C44.6935 16.342 46.3199 16.3779 47.5204 17.5603C47.6753 17.7216 47.9463 17.7395 48.1206 17.6141C48.3336 17.4707 48.3723 17.1841 48.1787 16.987C47.6172 16.4316 46.8814 16.0016 46.0489 15.7508Z" fill="#999999" stroke="#999999" stroke-width="1.2"/>
<path d="M41.1111 11.4632C42.0162 11.4632 42.7499 10.7353 42.7499 9.83739C42.7499 8.9395 42.0162 8.21161 41.1111 8.21161C40.2059 8.21161 39.4722 8.9395 39.4722 9.83739C39.4722 10.7353 40.2059 11.4632 41.1111 11.4632Z" fill="#999999"/>
<path d="M47.8889 11.4632C48.794 11.4632 49.5278 10.7353 49.5278 9.83739C49.5278 8.9395 48.794 8.21161 47.8889 8.21161C46.9838 8.21161 46.25 8.9395 46.25 9.83739C46.25 10.7353 46.9838 11.4632 47.8889 11.4632Z" fill="#999999"/>
</svg>
