<svg width="15" height="12" viewBox="0 0 15 12" fill="none" xmlns="http://www.w3.org/2000/svg">
<path d="M6.13813 0C5.25757 0 4.50719 0.56178 4.22299 1.33333H0.690635C0.600402 1.33208 0.510817 1.3484 0.427083 1.38135C0.343349 1.41429 0.267138 1.4632 0.202879 1.52523C0.138619 1.58726 0.087592 1.66117 0.0527637 1.74268C0.0179353 1.82418 0 1.91165 0 2C0 2.08835 0.0179353 2.17582 0.0527637 2.25732C0.087592 2.33883 0.138619 2.41274 0.202879 2.47477C0.267138 2.5368 0.343349 2.58571 0.427083 2.61865C0.510817 2.6516 0.600402 2.66792 0.690635 2.66667H4.22299C4.50719 3.43822 5.25757 4 6.13813 4C7.01869 4 7.76906 3.43822 8.05326 2.66667H14.3094C14.3996 2.66792 14.4892 2.6516 14.5729 2.61865C14.6567 2.58571 14.7329 2.5368 14.7971 2.47477C14.8614 2.41274 14.9124 2.33883 14.9472 2.25732C14.9821 2.17582 15 2.08835 15 2C15 1.91165 14.9821 1.82418 14.9472 1.74268C14.9124 1.66117 14.8614 1.58726 14.7971 1.52523C14.7329 1.4632 14.6567 1.41429 14.5729 1.38135C14.4892 1.3484 14.3996 1.33208 14.3094 1.33333H8.05326C7.76906 0.56178 7.01869 0 6.13813 0ZM6.13813 1.33333C6.52226 1.33333 6.81906 1.62391 6.81906 2C6.81906 2.37609 6.52226 2.66667 6.13813 2.66667C5.75399 2.66667 5.45719 2.37609 5.45719 2C5.45719 1.62391 5.75399 1.33333 6.13813 1.33333ZM10.2237 4C9.34319 4 8.59281 4.56178 8.30861 5.33333H0.690635C0.600402 5.33208 0.510817 5.3484 0.427083 5.38135C0.343349 5.41429 0.267138 5.4632 0.202879 5.52523C0.138619 5.58726 0.087592 5.66117 0.0527637 5.74268C0.0179353 5.82418 0 5.91165 0 6C0 6.08835 0.0179353 6.17582 0.0527637 6.25732C0.087592 6.33883 0.138619 6.41274 0.202879 6.47477C0.267138 6.5368 0.343349 6.58571 0.427083 6.61865C0.510817 6.6516 0.600402 6.66792 0.690635 6.66667H8.30861C8.59281 7.43822 9.34319 8 10.2237 8C11.1043 8 11.8547 7.43822 12.1389 6.66667H14.3094C14.3996 6.66792 14.4892 6.6516 14.5729 6.61865C14.6567 6.58571 14.7329 6.5368 14.7971 6.47477C14.8614 6.41274 14.9124 6.33883 14.9472 6.25732C14.9821 6.17582 15 6.08835 15 6C15 5.91165 14.9821 5.82418 14.9472 5.74268C14.9124 5.66117 14.8614 5.58726 14.7971 5.52523C14.7329 5.4632 14.6567 5.41429 14.5729 5.38135C14.4892 5.3484 14.3996 5.33208 14.3094 5.33333H12.1389C11.8547 4.56178 11.1043 4 10.2237 4ZM10.2237 5.33333C10.6079 5.33333 10.9047 5.62391 10.9047 6C10.9047 6.37609 10.6079 6.66667 10.2237 6.66667C9.85343 6.66667 9.57112 6.39413 9.55079 6.03776C9.5523 6.01217 9.5523 5.98653 9.55079 5.96094C9.57176 5.60523 9.85389 5.33333 10.2237 5.33333ZM4.77625 8C3.89217 8 3.13864 8.5661 2.85713 9.34245C2.81627 9.33573 2.77487 9.33268 2.73344 9.33333H0.690635C0.600402 9.33208 0.510817 9.3484 0.427083 9.38135C0.343349 9.41429 0.267138 9.4632 0.202879 9.52523C0.138619 9.58726 0.087592 9.66117 0.0527637 9.74268C0.0179353 9.82418 0 9.91165 0 10C0 10.0884 0.0179353 10.1758 0.0527637 10.2573C0.087592 10.3388 0.138619 10.4127 0.202879 10.4748C0.267138 10.5368 0.343349 10.5857 0.427083 10.6187C0.510817 10.6516 0.600402 10.6679 0.690635 10.6667H2.73344C2.77491 10.6669 2.81631 10.6634 2.85713 10.6563C3.1383 11.4332 3.89172 12 4.77625 12C5.65681 12 6.40719 11.4382 6.69139 10.6667H14.3094C14.3996 10.6679 14.4892 10.6516 14.5729 10.6187C14.6567 10.5857 14.7329 10.5368 14.7971 10.4748C14.8614 10.4127 14.9124 10.3388 14.9472 10.2573C14.9821 10.1758 15 10.0884 15 10C15 9.91165 14.9821 9.82418 14.9472 9.74268C14.9124 9.66117 14.8614 9.58726 14.7971 9.52523C14.7329 9.4632 14.6567 9.41429 14.5729 9.38135C14.4892 9.3484 14.3996 9.33208 14.3094 9.33333H6.69139C6.40719 8.56178 5.65681 8 4.77625 8ZM4.77625 9.33333C5.16039 9.33333 5.45719 9.62391 5.45719 10C5.45719 10.3761 5.16039 10.6667 4.77625 10.6667C4.39212 10.6667 4.09532 10.3761 4.09532 10C4.09532 9.62391 4.39212 9.33333 4.77625 9.33333Z" fill="#222222"/>
</svg>
