<svg width="32" height="32" viewBox="0 0 32 32" fill="none" xmlns="http://www.w3.org/2000/svg">
<rect y="32" width="32" height="32" transform="rotate(-90 0 32)" fill="white"/>
<path fill-rule="evenodd" clip-rule="evenodd" d="M12.7885 8C12.7885 7.58579 13.1243 7.25 13.5385 7.25H20.0001C21.5188 7.25 22.7501 8.48122 22.7501 10V21.2308C22.7501 22.7496 21.5188 23.9808 20.0001 23.9808H13.5385C13.1243 23.9808 12.7885 23.645 12.7885 23.2308C12.7885 22.8166 13.1243 22.4808 13.5385 22.4808H20.0001C20.6904 22.4808 21.2501 21.9211 21.2501 21.2308V10C21.2501 9.30964 20.6904 8.75 20.0001 8.75H13.5385C13.1243 8.75 12.7885 8.41421 12.7885 8Z" fill="#222222"/>
<path fill-rule="evenodd" clip-rule="evenodd" d="M8.25 15.6154C8.25 15.2012 8.58579 14.8654 9 14.8654H17.5C17.9142 14.8654 18.25 15.2012 18.25 15.6154C18.25 16.0296 17.9142 16.3654 17.5 16.3654H9C8.58579 16.3654 8.25 16.0296 8.25 15.6154Z" fill="#222222"/>
<path fill-rule="evenodd" clip-rule="evenodd" d="M14.2773 12.1235C14.5702 11.8306 15.0451 11.8306 15.338 12.1235L18.2995 15.085C18.5924 15.3779 18.5924 15.8528 18.2995 16.1457L15.338 19.1072C15.0451 19.4001 14.5702 19.4001 14.2773 19.1072C13.9844 18.8144 13.9844 18.3395 14.2773 18.0466L16.7085 15.6154L14.2773 13.1842C13.9844 12.8913 13.9844 12.4164 14.2773 12.1235Z" fill="#222222"/>
</svg>
