<svg width="76" height="76" viewBox="0 0 76 76" fill="none" xmlns="http://www.w3.org/2000/svg">
<path fill-rule="evenodd" clip-rule="evenodd" d="M0 38C0 58.9868 17.0132 76 38 76C58.9868 76 76 58.9868 76 38C76 17.0132 58.9868 0 38 0C17.0132 0 0 17.0132 0 38ZM70.1952 38.001C70.1952 55.7183 55.8324 70.0811 38.1151 70.0811C20.3977 70.0811 6.03498 55.7183 6.03498 38.001C6.03498 20.2836 20.3977 5.92085 38.1151 5.92085C55.8324 5.92085 70.1952 20.2836 70.1952 38.001Z" fill="#999999"/>
<path d="M50.4964 26.6934L32.2826 44.3125L25.6366 37.8113C24.7065 36.9068 23.2145 36.9068 22.2844 37.7925C21.3544 38.6781 21.3544 40.148 22.2651 41.0525L30.5775 49.1931C31.0426 49.6453 31.6432 49.8715 32.2633 49.8715C32.8639 49.8715 33.4646 49.6453 33.9296 49.1931L53.8292 29.9534C54.7592 29.0489 54.7592 27.5979 53.8485 26.6934C52.9185 25.7888 51.4265 25.7888 50.4964 26.6934Z" fill="#999999"/>
<path fill-rule="evenodd" clip-rule="evenodd" d="M49.8085 25.9838C51.1222 24.7073 53.2242 24.7076 54.5376 25.9849L54.545 25.9921C55.8462 27.2845 55.8459 29.3706 54.5182 30.6619L54.5161 30.6639L34.6187 49.9016L34.6174 49.9028C33.9619 50.5397 33.112 50.8598 32.2633 50.8598C31.3989 50.8598 30.5471 50.5421 29.8885 49.9016L29.886 49.8992L21.5686 41.7537C20.2716 40.4655 20.261 38.3546 21.6029 37.0768C22.9157 35.8266 25.013 35.8263 26.3256 37.1028L26.3276 37.1048L32.2865 42.9337L49.8074 25.9849L49.8085 25.9838ZM53.1557 27.3982C52.609 26.8704 51.7307 26.8716 51.1854 27.4019L51.1836 27.4037L32.2788 45.6912L24.9475 38.5198L24.9467 38.519C24.399 37.9873 23.513 37.9873 22.966 38.5082C22.4485 39.001 22.4371 39.8282 22.9594 40.3492L22.9615 40.3513L31.2666 48.4846L31.2677 48.4857C31.539 48.749 31.8881 48.8832 32.2633 48.8832C32.6153 48.8832 32.9662 48.7514 33.2406 48.4846L33.2427 48.4826L53.1401 29.2449L53.1411 29.244C53.6713 28.7273 53.672 27.9148 53.1557 27.3982Z" fill="#999999"/>
</svg>
