<svg width="11" height="11" viewBox="0 0 11 11" fill="none" xmlns="http://www.w3.org/2000/svg">
<path d="M9.25 0.25H1.25C0.698667 0.25 0.25 0.698667 0.25 1.25V9.25C0.25 9.80133 0.698667 10.25 1.25 10.25H9.25C9.80133 10.25 10.25 9.80133 10.25 9.25V1.25C10.25 0.698667 9.80133 0.25 9.25 0.25ZM9.58333 1.25V4.91667H5.58333V0.916667H9.25C9.43378 0.916667 9.58333 1.06622 9.58333 1.25ZM0.916667 9.25V1.25C0.916667 1.06622 1.06622 0.916667 1.25 0.916667H4.91667V9.58333H1.25C1.06622 9.58333 0.916667 9.43378 0.916667 9.25ZM9.25 9.58333H5.58333V5.58333H9.58333V9.25C9.58333 9.43378 9.43378 9.58333 9.25 9.58333Z" fill="#222222"/>
<path fill-rule="evenodd" clip-rule="evenodd" d="M0 1.25C0 0.560596 0.560596 0 1.25 0H9.25C9.9394 0 10.5 0.560596 10.5 1.25V9.25C10.5 9.9394 9.9394 10.5 9.25 10.5H1.25C0.560596 10.5 0 9.9394 0 9.25V1.25ZM1.25 0.5C0.836738 0.5 0.5 0.836738 0.5 1.25V9.25C0.5 9.66326 0.836738 10 1.25 10H9.25C9.66326 10 10 9.66326 10 9.25V1.25C10 0.836738 9.66326 0.5 9.25 0.5H1.25ZM1.25 1.16667C1.20429 1.16667 1.16667 1.20429 1.16667 1.25V9.25C1.16667 9.29571 1.20429 9.33333 1.25 9.33333H4.66667V1.16667H1.25ZM0.666667 1.25C0.666667 0.928151 0.928151 0.666667 1.25 0.666667H5.16667V9.83333H1.25C0.928151 9.83333 0.666667 9.57185 0.666667 9.25V1.25ZM5.33333 0.666667H9.25C9.57185 0.666667 9.83333 0.928151 9.83333 1.25V5.16667H5.33333V0.666667ZM5.83333 1.16667V4.66667H9.33333V1.25C9.33333 1.20429 9.29571 1.16667 9.25 1.16667H5.83333ZM5.33333 5.33333H9.83333V9.25C9.83333 9.57185 9.57185 9.83333 9.25 9.83333H5.33333V5.33333ZM5.83333 5.83333V9.33333H9.25C9.29571 9.33333 9.33333 9.29571 9.33333 9.25V5.83333H5.83333Z" fill="#222222"/>
</svg>
