<svg width="14" height="10" viewBox="0 0 14 10" fill="none" xmlns="http://www.w3.org/2000/svg">
<path d="M2.658 2.2854L1.13437 3.82021C0.874869 4.08161 0.454131 4.08161 0.194628 3.82021C-0.0648759 3.5588 -0.0648759 3.13497 0.194628 2.87356L2.85263 0.196056C3.11213 -0.065352 3.53287 -0.065352 3.79237 0.196056L6.45037 2.87356C6.70988 3.13497 6.70988 3.5588 6.45037 3.82021C6.19087 4.08161 5.77013 4.08161 5.51063 3.82021L3.987 2.2854V8.08401C3.987 8.42526 3.68949 8.7019 3.3225 8.7019C2.95551 8.7019 2.658 8.42526 2.658 8.08401V2.2854ZM9.303 7.08588V1.28726C9.303 0.946014 9.60051 0.669377 9.9675 0.669377C10.3345 0.669377 10.632 0.946014 10.632 1.28726V7.08588L12.1556 5.55107C12.4151 5.28966 12.8359 5.28966 13.0954 5.55107C13.3549 5.81248 13.3549 6.23631 13.0954 6.49771L10.4374 9.17522C10.1779 9.43663 9.75713 9.43663 9.49763 9.17522L6.83963 6.49771C6.58012 6.23631 6.58012 5.81248 6.83963 5.55107C7.09913 5.28966 7.51987 5.28966 7.77937 5.55107L9.303 7.08588Z" fill="#222222"/>
</svg>
