<svg width="17" height="17" viewBox="0 0 17 17" fill="none" xmlns="http://www.w3.org/2000/svg">
<path d="M0.514005 6.15945C0.181274 5.26103 -0.0596696 4.34349 0.0129959 3.36861C0.0588899 2.76839 0.284535 2.25609 0.724353 1.83556C1.20242 1.38443 1.65371 0.910371 2.12412 0.451602C2.73604 -0.152444 3.50476 -0.148621 4.11668 0.451602C4.49531 0.82244 4.87011 1.20092 5.24491 1.57941C5.60824 1.9426 5.97539 2.30579 6.33872 2.67281C6.97741 3.31891 6.98124 4.07205 6.34254 4.71433C5.8836 5.1731 5.42849 5.63569 4.9619 6.08681C4.83951 6.20533 4.82804 6.30473 4.89306 6.45383C5.19902 7.18786 5.64266 7.84161 6.13984 8.4533C7.14186 9.68433 8.27392 10.7777 9.62396 11.6226C9.91463 11.8023 10.2321 11.9361 10.5342 12.1005C10.691 12.1846 10.7943 12.1579 10.9205 12.0279C11.3756 11.5576 11.8422 11.095 12.3088 10.6325C12.9207 10.0284 13.6856 10.0246 14.2975 10.6325C15.0471 11.3741 15.7929 12.1196 16.5348 12.8689C17.1582 13.4959 17.1544 14.2644 16.5272 14.8952C16.1027 15.3234 15.6552 15.7286 15.2575 16.1759C14.6761 16.8258 13.9418 17.0399 13.1081 16.994C11.8919 16.9291 10.7713 16.5238 9.68898 16C7.2872 14.834 5.23726 13.2168 3.52006 11.1753C2.25033 9.66139 1.20242 8.01747 0.514005 6.15945Z" fill="#222222"/>
<path fill-rule="evenodd" clip-rule="evenodd" d="M6.17753 2.83217C5.93574 2.58793 5.69272 2.34585 5.44961 2.10368C5.32794 1.98248 5.20624 1.86126 5.08467 1.73973L5.08386 1.73892C4.70885 1.36022 4.33527 0.982973 3.95809 0.61355C3.68627 0.346923 3.39548 0.227063 3.1201 0.226681C2.84496 0.2263 2.55477 0.345015 2.28336 0.612928L2.28239 0.613892C2.09575 0.795911 1.90811 0.984479 1.71913 1.17441C1.44285 1.45207 1.16367 1.73264 0.880482 1.9999C0.484331 2.37892 0.280992 2.83744 0.239028 3.38569C0.169978 4.31268 0.398199 5.19409 0.726561 6.08072C0.726565 6.08073 0.726557 6.08071 0.726561 6.08072C1.40386 7.90875 2.43634 9.53042 3.69357 11.0295C5.3909 13.0474 7.41568 14.6444 9.78798 15.7962C9.78807 15.7962 9.7879 15.7961 9.78798 15.7962C10.8577 16.3138 11.9469 16.705 13.1202 16.7677C13.9024 16.8108 14.5634 16.6118 15.0883 16.0251C15.3585 15.7212 15.6562 15.4315 15.9474 15.1481C16.0899 15.0094 16.2308 14.8722 16.3662 14.7356C16.6474 14.4528 16.7722 14.1572 16.7733 13.8797C16.7745 13.6026 16.6526 13.3089 16.3741 13.0288C15.6327 12.28 14.8871 11.5347 14.1381 10.7936C13.8663 10.5236 13.5769 10.4043 13.3035 10.4047C13.0298 10.405 12.7402 10.5251 12.4681 10.7937C12.0013 11.2565 11.5365 11.7173 11.0834 12.1855C11.0076 12.2635 10.9108 12.3409 10.7839 12.3666C10.6518 12.3934 10.5314 12.3562 10.4271 12.3003L10.4259 12.2996C10.3116 12.2375 10.196 12.1803 10.0759 12.1209C10.0422 12.1042 10.0082 12.0874 9.9737 12.0702C9.81916 11.9932 9.6594 11.911 9.50478 11.8154L9.50372 11.8148C8.12721 10.9533 6.97719 9.84109 5.96406 8.5964C5.45955 7.97569 5.00185 7.30337 4.68452 6.54266C4.68478 6.54325 4.68503 6.54385 4.68529 6.54444L4.89306 6.45383L4.68385 6.54105C4.68407 6.54159 4.68429 6.54212 4.68452 6.54266C4.64437 6.4501 4.61315 6.34049 4.63383 6.2204C4.65504 6.09724 4.72391 6.00177 4.80422 5.924C5.15251 5.58726 5.494 5.24448 5.8371 4.90007C5.9518 4.78493 6.0667 4.6696 6.18212 4.55422C6.46983 4.26478 6.59375 3.97082 6.59299 3.69564C6.59224 3.41999 6.46629 3.12428 6.17753 2.83217C6.17757 2.83221 6.17749 2.83213 6.17753 2.83217Z" fill="#222222"/>
</svg>
