<svg xmlns="http://www.w3.org/2000/svg" width="21" height="21" viewBox="0 0 21 21">
    <g fill="#FFF" fill-rule="nonzero">
        <path d="M20.908 10.43c-.224-1.334-.889-2.044-1.406-2.404a3.309 3.309 0 0 0-1.537-.562 2.729 2.729 0 0 0-2.243-1.134c-.198 0-.4.019-.603.056a2.756 2.756 0 0 0-2.168-.954V2.337C12.95 1.005 11.943 0 10.61 0 9.279 0 8.27 1.005 8.27 2.337v8.646c0 .135-.117.18-.173.18a.164.164 0 0 1-.08-.022c-.768-.407-1.637-.796-2.736-1.227a2.602 2.602 0 0 0-.951-.185c-1.046 0-1.946.67-2.239 1.667-.299 1.017.143 2.084 1.127 2.716.625.402 1.282.725 1.918 1.038.966.475 1.878.923 2.24 1.458.315.464 1.007 1.78 1.853 3.496.268.544.812.896 1.42.896h6.32a1.6 1.6 0 0 0 1.569-1.387l.321-2.426c1.796-2.754 2.39-4.721 2.048-6.757zm-2.919 6.283a.602.602 0 0 0-.093.25l-.334 2.52a.61.61 0 0 1-.592.532h-6.32a.61.61 0 0 1-.536-.347c-.4-.81-1.431-2.882-1.921-3.606-.793-1.17-2.832-1.74-4.44-2.774-1.402-.902-.688-2.572.578-2.572.187 0 .387.036.593.116a25.74 25.74 0 0 1 2.637 1.18c.177.093.357.136.537.136a1.16 1.16 0 0 0 1.159-1.165V2.337c0-.902.678-1.352 1.354-1.352s1.355.45 1.355 1.352v3.515a.6.6 0 0 0 .694.59 2.39 2.39 0 0 1 .343-.025c.484 0 1.05.16 1.484.756a.592.592 0 0 0 .635.22c.168-.043.375-.079.6-.079.503 0 1.095.18 1.536.857a.587.587 0 0 0 .462.26c.604.033 1.907.32 2.216 2.162.293 1.746-.205 3.465-1.947 6.12z"/>
        <path d="M3.889 7.517a.483.483 0 0 0-.483-.483H1.725l4.31-4.345V4.37a.483.483 0 0 0 .965 0V1.474C7 1.207 6.81 1 6.544 1H3.728a.483.483 0 0 0 0 .966h1.7L.966 6.392v-1.7a.483.483 0 0 0-.966 0v2.816C0 7.775.243 8 .51 8h2.896a.483.483 0 0 0 .483-.483z"/>
    </g>
</svg>
