<svg viewBox="0 0 14 14" fill="#222222" xmlns="http://www.w3.org/2000/svg"><path fill-rule="evenodd" clip-rule="evenodd" d="M0 7C3.62135e-08 6.58579 0.335786 6.25 0.75 6.25L12.75 6.25C13.1642 6.25 13.5 6.58579 13.5 7C13.5 7.41421 13.1642 7.75 12.75 7.75L0.75 7.75C0.335786 7.75 -3.62099e-08 7.41421 0 7Z"/><path fill-rule="evenodd" clip-rule="evenodd" d="M6.75 0C7.16421 5.43176e-08 7.5 0.335787 7.5 0.75L7.5 12.75C7.5 13.1642 7.16421 13.5 6.75 13.5C6.33578 13.5 6 13.1642 6 12.75L6 0.75C6 0.335786 6.33579 -5.43175e-08 6.75 0Z"/></svg>