<svg width="13" height="15" viewBox="0 0 13 15" fill="none" xmlns="http://www.w3.org/2000/svg">
<path d="M7.74105 14.0514L7.73609 14.074L7.73609 4.35764L10.7973 7.41212C10.9468 7.56169 11.1492 7.64373 11.3617 7.64373C11.5742 7.64373 11.7752 7.56169 11.925 7.41212L12.4006 6.93684C12.55 6.78738 12.6327 6.58823 12.6327 6.37585C12.6327 6.16336 12.5506 5.96409 12.4012 5.81463L7.16566 0.578671C7.01562 0.428627 6.81575 0.346581 6.60314 0.347171C6.38935 0.346581 6.18937 0.428627 6.03956 0.578671L0.803599 5.81463C0.654263 5.96409 0.572099 6.16324 0.572099 6.37585C0.572099 6.58823 0.654382 6.78738 0.803599 6.93684L1.27911 7.41212C1.42833 7.56169 1.6276 7.64373 1.8401 7.64373C2.05247 7.64373 2.24124 7.56169 2.39057 7.41212L5.4689 4.32316L5.4689 14.0622C5.4689 14.4998 5.84608 14.8676 6.28346 14.8676H6.956C7.39338 14.8676 7.74105 14.489 7.74105 14.0514Z" fill="#999999"/>
</svg>
