<svg width="16" height="18" viewBox="0 0 16 18" fill="none" xmlns="http://www.w3.org/2000/svg">
<path fill-rule="evenodd" clip-rule="evenodd" d="M6.8 1.6C3.92812 1.6 1.6 3.92812 1.6 6.8C1.6 9.67188 3.92812 12 6.8 12C9.67188 12 12 9.67188 12 6.8C12 3.92812 9.67188 1.6 6.8 1.6ZM0 6.8C0 3.04446 3.04446 0 6.8 0C10.5555 0 13.6 3.04446 13.6 6.8C13.6 10.5555 10.5555 13.6 6.8 13.6C3.04446 13.6 0 10.5555 0 6.8Z" fill="#666666"/>
<path fill-rule="evenodd" clip-rule="evenodd" d="M10.2685 11.7021C10.5987 11.4085 11.1044 11.4383 11.3979 11.7685L15.3979 16.2685C15.6915 16.5987 15.6617 17.1044 15.3315 17.3979C15.0013 17.6915 14.4956 17.6617 14.2021 17.3315L10.2021 12.8315C9.90854 12.5013 9.93828 11.9956 10.2685 11.7021Z" fill="#666666"/>
</svg>
