<svg width="165" height="46" viewBox="0 0 165 46" fill="none" xmlns="http://www.w3.org/2000/svg">
<path d="M0 3C0 1.34315 1.34315 0 3 0H162C163.657 0 165 1.34315 165 3V43C165 44.6569 163.657 46 162 46H3C1.34314 46 0 44.6569 0 43V3Z" fill="#FFF"/>
<path fill-rule="evenodd" clip-rule="evenodd" d="M10 12C10 9.79086 11.7909 8 14 8H150.82C153.029 8 154.82 9.79086 154.82 12V22.8895C154.82 25.0987 153.029 26.8895 150.82 26.8895H14C11.7909 26.8895 10 25.0987 10 22.8895L10 12Z" fill="black"/>
<path fill-rule="evenodd" clip-rule="evenodd" d="M47.4937 19.9221H50.9222V21.6421H45.439V13.5615H47.4937V19.9221ZM55.7359 13.4927C58.2408 13.4927 60.1109 15.2473 60.1109 17.5907C60.1109 19.9456 58.2408 21.7348 55.7359 21.7348C53.2424 21.7348 51.3724 19.9571 51.3724 17.5907C51.3724 15.2358 53.2424 13.4927 55.7359 13.4927ZM55.759 15.2129C54.5123 15.2129 53.4733 16.2403 53.4733 17.6024C53.4733 18.9646 54.5238 20.015 55.759 20.015C57.0057 20.015 57.9984 18.9646 57.9984 17.6024C57.9984 16.2403 57.0057 15.2129 55.759 15.2129ZM65.9058 13.5503V19.022C65.9058 20.742 64.8323 21.7347 63.1123 21.7347C61.9695 21.7347 61.046 21.2614 60.3303 20.4418L61.2768 19.0681C61.854 19.6684 62.5005 19.9685 62.9737 19.9685C63.5163 19.9685 63.8395 19.6338 63.8395 18.9758V15.2126H61.0691V13.5503H65.9058ZM72.7512 20.1529H69.2188L68.6301 21.6421H66.5176L70.0038 13.5615H72.1163L75.5217 21.6421H73.3284L72.7512 20.1529ZM72.1509 18.5948L70.9965 15.605L69.8191 18.5948H72.1509ZM78.9501 13.5615H82.4709C84.5372 13.5615 85.7262 14.5774 85.7262 16.3782C85.7262 18.2713 84.5372 19.368 82.4709 19.368H81.0048V21.6421H78.9501V13.5615ZM81.0048 15.1777V17.752H82.367C83.2674 17.752 83.7868 17.3018 83.7868 16.4475C83.7868 15.6048 83.2674 15.1777 82.367 15.1777H81.0048ZM91.6711 21.6421L90.4706 19.368H88.8545V21.6421H86.7997V13.5615H90.4129C92.5485 13.5615 93.7721 14.5774 93.7721 16.3782C93.7721 17.6133 93.2526 18.5022 92.306 18.9755L94.003 21.6421H91.6711ZM88.8545 17.752H90.4129C91.3017 17.752 91.8212 17.3018 91.8212 16.4475C91.8212 15.6048 91.3017 15.1777 90.4129 15.1777H88.8545V17.752ZM98.9898 13.4927C101.495 13.4927 103.365 15.2473 103.365 17.5907C103.365 19.9456 101.495 21.7348 98.9898 21.7348C96.4963 21.7348 94.6263 19.9571 94.6263 17.5907C94.6263 15.2358 96.4963 13.4927 98.9898 13.4927ZM99.0129 15.2129C97.7662 15.2129 96.7272 16.2403 96.7272 17.6024C96.7272 18.9646 97.7777 20.015 99.0129 20.015C100.26 20.015 101.252 18.9646 101.252 17.6024C101.252 16.2403 100.26 15.2129 99.0129 15.2129ZM110.626 15.2126H108.19V21.6424H106.135V15.2126H103.723V13.5503H110.626V15.2126ZM117.829 15.1776H113.558V16.7822H117.413V18.3983H113.558V20.0259H117.956V21.6421H111.503V13.5615H117.829V15.1776ZM124.651 17.5329H126.429V20.6843C125.563 21.2962 124.201 21.7348 123.07 21.7348C120.611 21.7348 118.753 19.9571 118.753 17.6022C118.753 15.2588 120.657 13.4927 123.208 13.4927C124.409 13.4927 125.679 13.9544 126.51 14.6932L125.355 16.09C124.767 15.5474 123.947 15.2127 123.197 15.2127C121.869 15.2127 120.853 16.2516 120.853 17.6022C120.853 18.9759 121.881 20.0148 123.22 20.0148C123.635 20.0148 124.166 19.8648 124.651 19.6223V17.5329ZM129.915 21.6421H127.86V13.5615H129.915V21.6421ZM131.531 13.5615H135.006C137.546 13.5615 139.3 15.2007 139.3 17.6018C139.3 19.9913 137.522 21.6421 134.925 21.6421H131.531V13.5615ZM133.586 15.2007V20.0028H135.052C136.31 20.0028 137.211 19.0332 137.211 17.6133C137.211 16.1819 136.264 15.2007 134.96 15.2007H133.586ZM145.753 20.1529H142.221L141.632 21.6421H139.519L143.006 13.5615H145.118L148.523 21.6421H146.33L145.753 20.1529ZM145.153 18.5948L143.998 15.605L142.821 18.5948H145.153Z" fill="#F5F5F5"/>
<path fill-rule="evenodd" clip-rule="evenodd" d="M43.1805 30.7432C44.1155 30.7432 45.0506 31.1304 45.6928 31.7632L45.0411 32.5755C44.5594 32.056 43.87 31.7349 43.1994 31.7349C41.8771 31.7349 40.8382 32.7549 40.8382 34.0583C40.8382 35.3617 41.8771 36.3911 43.1994 36.3911C43.8605 36.3911 44.5406 36.0889 45.0411 35.6072L45.7023 36.3439C45.0317 37.005 44.0778 37.4301 43.1427 37.4301C41.2066 37.4301 39.7048 35.9661 39.7048 34.0677C39.7048 32.1882 41.2254 30.7432 43.1805 30.7432ZM49.7919 30.7437C51.7658 30.7437 53.2959 32.1887 53.2959 34.0777C53.2959 35.9666 51.7658 37.4306 49.7919 37.4306C47.8179 37.4306 46.2878 35.9666 46.2878 34.0777C46.2878 32.1793 47.8179 30.7437 49.7919 30.7437ZM49.8013 31.7451C48.498 31.7451 47.4213 32.7652 47.4213 34.078C47.4213 35.3908 48.5074 36.4297 49.8013 36.4297C51.0953 36.4297 52.1531 35.3908 52.1531 34.078C52.1531 32.7652 51.0953 31.7451 49.8013 31.7451ZM61.475 37.3833H60.4456L60.4361 32.4437L58.3488 36.6938H57.6216L55.5343 32.4437V37.3833H54.4859V30.772H55.8082L57.9899 35.1638L60.1622 30.772H61.475V37.3833ZM63.2223 30.772H65.8574C67.5197 30.772 68.4736 31.5937 68.4736 33.0293C68.4736 34.5215 67.5197 35.3905 65.8574 35.3905H64.3368V37.3833H63.2223V30.772ZM64.3368 31.7734V34.3896H65.8102C66.8302 34.3896 67.4063 33.9552 67.4063 33.0579C67.4063 32.189 66.8302 31.7734 65.8102 31.7734H64.3368ZM73.7721 37.3833L72.5632 35.381C72.4687 35.3905 72.3648 35.3905 72.2609 35.3905H70.6931V37.3833H69.5786V30.772H72.2609C73.9515 30.772 74.9244 31.5937 74.9244 33.0293C74.9244 34.0871 74.4332 34.8332 73.5549 35.1732L75.0377 37.3833H73.7721ZM70.6931 34.3896H72.2609C73.281 34.3896 73.8666 33.9552 73.8666 33.0579C73.8666 32.189 73.281 31.7734 72.2609 31.7734H70.6931V34.3896ZM80.6763 35.891H77.3423L76.7095 37.3833H75.5478L78.4662 30.772H79.609L82.4991 37.3833H81.3091L80.6763 35.891ZM80.2512 34.8997L79.0045 31.9624L77.7578 34.8997H80.2512ZM87.4765 37.3833H86.362V31.7637H85.0681V30.772H87.4765V37.3833ZM91.8683 30.7437C93.6723 30.7437 94.6734 31.9337 94.6734 34.0777C94.6734 36.2216 93.6723 37.4117 91.8683 37.4117C90.0549 37.4117 89.0538 36.2216 89.0538 34.0777C89.0538 31.9337 90.0549 30.7437 91.8683 30.7437ZM91.8683 31.6221C90.7538 31.6221 90.1966 32.3965 90.1966 34.0777C90.1966 35.7494 90.7538 36.5334 91.8683 36.5334C92.9734 36.5334 93.5306 35.7494 93.5306 34.0777C93.5306 32.3965 92.9734 31.6221 91.8683 31.6221ZM98.3947 30.7437C100.199 30.7437 101.2 31.9337 101.2 34.0777C101.2 36.2216 100.199 37.4117 98.3947 37.4117C96.5813 37.4117 95.5801 36.2216 95.5801 34.0777C95.5801 31.9337 96.5813 30.7437 98.3947 30.7437ZM98.3947 31.6221C97.2802 31.6221 96.723 32.3965 96.723 34.0777C96.723 35.7494 97.2802 36.5334 98.3947 36.5334C99.4997 36.5334 100.057 35.7494 100.057 34.0777C100.057 32.3965 99.4997 31.6221 98.3947 31.6221ZM103.759 30.7529C104.845 30.7529 105.507 31.4896 105.507 32.7174C105.507 33.9547 104.845 34.7008 103.759 34.7008C102.673 34.7008 102.012 33.9547 102.012 32.7174C102.012 31.4896 102.673 30.7529 103.759 30.7529ZM103.259 37.3833L108.123 30.772H109.162L104.307 37.3833H103.259ZM103.759 31.3955C103.108 31.3955 102.739 31.8772 102.739 32.7178C102.739 33.5678 103.108 34.0589 103.759 34.0589C104.411 34.0589 104.789 33.5678 104.789 32.7178C104.789 31.8772 104.411 31.3955 103.759 31.3955ZM108.737 33.4639C109.823 33.4639 110.484 34.2006 110.484 35.4284C110.484 36.6656 109.823 37.4023 108.737 37.4023C107.65 37.4023 106.989 36.6656 106.989 35.4284C106.989 34.2006 107.65 33.4639 108.737 33.4639ZM108.737 34.0967C108.085 34.0967 107.717 34.5878 107.717 35.4284C107.717 36.2784 108.085 36.7601 108.737 36.7601C109.388 36.7601 109.766 36.2784 109.766 35.4284C109.766 34.5878 109.388 34.0967 108.737 34.0967ZM116.321 30.7251C117.18 30.7251 118.021 30.999 118.635 31.4051L118.172 32.3874C117.454 31.9529 116.736 31.7735 116.236 31.7735C115.584 31.7735 115.159 32.019 115.159 32.4629C115.159 33.908 118.729 33.1335 118.72 35.5136C118.72 36.6942 117.681 37.4214 116.226 37.4214C115.187 37.4214 114.205 36.9964 113.525 36.3731L114.007 35.4097C114.687 36.0331 115.537 36.3731 116.245 36.3731C117.02 36.3731 117.483 36.0803 117.483 35.5703C117.483 34.0969 113.912 34.9186 113.912 32.5668C113.912 31.4335 114.885 30.7251 116.321 30.7251ZM124.746 31.7731H121.138V33.5582H124.368V34.5593H121.138V36.3822H124.859V37.3833H120.023V30.772H124.746V31.7731ZM130.743 34.1343H131.716V36.5711C131.045 37.0811 130.053 37.4306 129.147 37.4306C127.192 37.4306 125.671 35.9666 125.671 34.0777C125.671 32.1887 127.211 30.7437 129.213 30.7437C130.157 30.7437 131.102 31.1026 131.754 31.6692L131.121 32.4909C130.611 32.0187 129.902 31.7354 129.213 31.7354C127.862 31.7354 126.804 32.7648 126.804 34.0777C126.804 35.3999 127.872 36.4294 129.222 36.4294C129.713 36.4294 130.271 36.2594 130.743 35.9761V34.1343ZM138.913 30.772V34.6443C138.913 36.3727 137.827 37.4305 136.041 37.4305C134.256 37.4305 133.161 36.3727 133.161 34.6443V30.772H134.275V34.6443C134.275 35.7588 134.965 36.4294 136.051 36.4294C137.128 36.4294 137.798 35.7683 137.798 34.6443V30.772H138.913ZM144.702 37.3833L143.494 35.381C143.399 35.3905 143.295 35.3905 143.191 35.3905H141.623V37.3833H140.509V30.772H143.191C144.882 30.772 145.855 31.5937 145.855 33.0293C145.855 34.0871 145.364 34.8332 144.485 35.1732L145.968 37.3833H144.702ZM141.623 34.3896H143.191C144.211 34.3896 144.797 33.9552 144.797 33.0579C144.797 32.189 144.211 31.7734 143.191 31.7734H141.623V34.3896ZM151.606 35.891H148.272L147.64 37.3833H146.478L149.396 30.772H150.539L153.429 37.3833H152.239L151.606 35.891ZM151.181 34.8997L149.935 31.9624L148.688 34.8997H151.181Z" fill="#333333"/>
<path fill-rule="evenodd" clip-rule="evenodd" d="M37.0351 28.4588C36.275 30.5188 35.1255 32.31 33.618 33.782C31.9021 35.4576 29.6553 36.789 26.9398 37.7387C26.8507 37.7698 26.7577 37.7953 26.6643 37.814C26.5409 37.8384 26.4153 37.8516 26.2909 37.8533H26.2665C26.1338 37.8533 26.0004 37.8399 25.8682 37.814C25.7748 37.7953 25.6831 37.7698 25.5944 37.7394C22.8757 36.7911 20.6261 35.4604 18.9085 33.7848C17.4003 32.3128 16.251 30.5227 15.492 28.4627C14.1118 24.7172 14.1904 20.5912 14.2536 17.2755L14.2547 17.2246C14.2674 16.9508 14.2756 16.6632 14.2801 16.3456C14.3032 14.7863 15.5429 13.4964 17.1024 13.4094C20.3538 13.228 22.869 12.1675 25.0181 10.0728L25.0369 10.0555C25.3938 9.72825 25.8434 9.56773 26.2909 9.57442C26.7224 9.58003 27.1521 9.74033 27.4963 10.0555L27.5146 10.0728C29.6641 12.1675 32.1794 13.228 35.4308 13.4094C36.9902 13.4964 38.2299 14.7863 38.253 16.3456C38.2576 16.6653 38.2658 16.9525 38.2785 17.2246L38.2791 17.2461C38.3421 20.5681 38.4202 24.7023 37.0351 28.4588Z" fill="#23DA00"/>
<path fill-rule="evenodd" clip-rule="evenodd" d="M37.035 28.4586C36.2749 30.5186 35.1254 32.3098 33.6179 33.7818C31.9021 35.4574 29.6552 36.7888 26.9398 37.7385C26.8506 37.7696 26.7577 37.7951 26.6642 37.8138C26.5408 37.8382 26.4153 37.8514 26.2908 37.8531V9.57422C26.7223 9.57983 27.1521 9.74013 27.4962 10.0553L27.5145 10.0726C29.6641 12.1673 32.1793 13.2278 35.4307 13.4092C36.9901 13.4962 38.2299 14.7861 38.2529 16.3454C38.2575 16.6651 38.2657 16.9523 38.2784 17.2244L38.279 17.2459C38.342 20.5679 38.4202 24.7021 37.035 28.4586Z" fill="#00A801"/>
</svg>
