<svg width="32" height="32" viewBox="0 0 32 32" fill="none" xmlns="http://www.w3.org/2000/svg">
<rect width="32" height="32" fill="white"/>
<path fill-rule="evenodd" clip-rule="evenodd" d="M22.1592 18.4786C24.1423 18.4786 25.75 20.0863 25.75 22.0694C25.75 22.7451 25.2022 23.2929 24.5265 23.2929H13.8735C13.1978 23.2929 12.65 22.7451 12.65 22.0694C12.65 20.0863 14.2577 18.4786 16.2408 18.4786H22.1592ZM24.2319 21.7929C24.0966 20.7689 23.2202 19.9786 22.1592 19.9786H16.2408C15.1798 19.9786 14.3034 20.7689 14.1681 21.7929L24.2319 21.7929Z" fill="#222222"/>
<path fill-rule="evenodd" clip-rule="evenodd" d="M19.2 15.2429C20.6596 15.2429 21.8429 14.0596 21.8429 12.6C21.8429 11.1404 20.6596 9.95715 19.2 9.95715C17.7404 9.95715 16.5571 11.1404 16.5571 12.6C16.5571 14.0596 17.7404 15.2429 19.2 15.2429ZM19.2 16.7429C21.488 16.7429 23.3429 14.8881 23.3429 12.6C23.3429 10.312 21.488 8.45715 19.2 8.45715C16.912 8.45715 15.0571 10.312 15.0571 12.6C15.0571 14.8881 16.912 16.7429 19.2 16.7429Z" fill="#222222"/>
<path fill-rule="evenodd" clip-rule="evenodd" d="M11.4 16.95L7 16.95C6.58579 16.95 6.25 16.6142 6.25 16.2C6.25 15.7858 6.58579 15.45 7 15.45L11.4 15.45C11.8142 15.45 12.15 15.7858 12.15 16.2C12.15 16.6142 11.8142 16.95 11.4 16.95Z" fill="#222222"/>
<path fill-rule="evenodd" clip-rule="evenodd" d="M9.95 14L9.95 18.4C9.95 18.8142 9.61421 19.15 9.2 19.15C8.78578 19.15 8.45 18.8142 8.45 18.4L8.45 14C8.45 13.5858 8.78578 13.25 9.2 13.25C9.61421 13.25 9.95 13.5858 9.95 14Z" fill="#222222"/>
</svg>
