<svg width="17" height="17" viewBox="0 0 17 17" fill="none" xmlns="http://www.w3.org/2000/svg">
<path d="M8.5 0C6.81886 0 5.17547 0.498516 3.77766 1.43251C2.37984 2.3665 1.29037 3.69402 0.647028 5.24719C0.00368291 6.80036 -0.164645 8.50943 0.163329 10.1583C0.491303 11.8071 1.30085 13.3217 2.4896 14.5104C3.67834 15.6992 5.1929 16.5087 6.84174 16.8367C8.49057 17.1646 10.1996 16.9963 11.7528 16.353C13.306 15.7096 14.6335 14.6202 15.5675 13.2223C16.5015 11.8245 17 10.1811 17 8.5C17 7.38376 16.7801 6.27846 16.353 5.24719C15.9258 4.21592 15.2997 3.27889 14.5104 2.48959C13.7211 1.70029 12.7841 1.07419 11.7528 0.647024C10.7215 0.219859 9.61624 0 8.5 0ZM8.5 15.3C7.15509 15.3 5.84038 14.9012 4.72213 14.154C3.60387 13.4068 2.7323 12.3448 2.21762 11.1022C1.70295 9.85971 1.56828 8.49246 1.83066 7.17338C2.09304 5.85431 2.74068 4.64267 3.69168 3.69167C4.64267 2.74068 5.85432 2.09304 7.17339 1.83066C8.49246 1.56828 9.85971 1.70294 11.1022 2.21762C12.3448 2.73229 13.4068 3.60387 14.154 4.72212C14.9012 5.84038 15.3 7.15509 15.3 8.5C15.3 10.3035 14.5836 12.0331 13.3083 13.3083C12.0331 14.5836 10.3035 15.3 8.5 15.3ZM11.9 9.622C11.8409 9.79793 11.7258 9.94967 11.5723 10.054C11.4188 10.1584 11.2354 10.2097 11.05 10.2C10.9579 10.1977 10.8664 10.1834 10.778 10.1575L8.228 9.3075C8.05917 9.25048 7.91254 9.14184 7.80882 8.99693C7.7051 8.85203 7.64954 8.6782 7.65 8.5V4.25C7.65 4.02457 7.73956 3.80836 7.89896 3.64896C8.05837 3.48955 8.27457 3.4 8.5 3.4C8.72544 3.4 8.94164 3.48955 9.10104 3.64896C9.26045 3.80836 9.35 4.02457 9.35 4.25V7.888L11.322 8.5425C11.432 8.57354 11.5347 8.62645 11.6238 8.69808C11.7129 8.7697 11.7866 8.85856 11.8406 8.95934C11.8945 9.06012 11.9276 9.17075 11.9378 9.28461C11.948 9.39847 11.9352 9.51322 11.9 9.622Z" fill="#999999"/>
</svg>
