<svg width="11" height="11" viewBox="0 0 11 11" fill="none" xmlns="http://www.w3.org/2000/svg">
<path fill-rule="evenodd" clip-rule="evenodd" d="M9.23998 1.90767C9.35531 1.55642 9.01376 1.22742 8.66708 1.3558L1.61302 3.96802C1.22192 4.11286 1.23107 4.66918 1.62673 4.80106L4.26028 5.67891C4.77181 5.84942 5.17745 6.24425 5.36172 6.75099L6.1278 8.8577C6.27111 9.25181 6.83154 9.24298 6.96235 8.84455L9.23998 1.90767ZM8.20703 0.113477C9.59377 -0.400055 10.9599 0.915949 10.4986 2.32093L8.22102 9.25781C7.69774 10.8515 5.45604 10.8869 4.88279 9.31043L4.11671 7.20372C4.07064 7.07703 3.96923 6.97833 3.84135 6.9357L1.2078 6.05785C-0.374824 5.53031 -0.411435 3.30502 1.15297 2.7257L8.20703 0.113477Z" fill="#222222"/>
</svg>
