<svg width="30" height="31" viewBox="0 0 30 31" fill="none" xmlns="http://www.w3.org/2000/svg">
<path d="M15 30.5764C12.0333 30.5764 9.13319 29.6967 6.66645 28.0485C4.19971 26.4002 2.27713 24.0576 1.14181 21.3167C0.0064992 18.5758 -0.290551 15.5598 0.288227 12.6501C0.867006 9.74035 2.29562 7.06761 4.3934 4.96982C6.49119 2.87203 9.16393 1.44342 12.0736 0.864643C14.9834 0.285865 17.9994 0.582915 20.7403 1.71823C23.4811 2.85354 25.8238 4.77613 27.472 7.24287C29.1203 9.7096 30 12.6097 30 15.5764C30 19.5547 28.4196 23.37 25.6066 26.183C22.7936 28.9961 18.9783 30.5764 15 30.5764ZM15 2.29071C12.3723 2.29071 9.80368 3.0699 7.61886 4.52975C5.43403 5.98961 3.73117 8.06455 2.72561 10.4922C1.72004 12.9198 1.45694 15.5912 1.96957 18.1683C2.48221 20.7455 3.74755 23.1128 5.60559 24.9708C7.46363 26.8289 9.83091 28.0942 12.4081 28.6068C14.9853 29.1195 17.6566 28.8564 20.0842 27.8508C22.5119 26.8453 24.5868 25.1424 26.0467 22.9576C27.5065 20.7727 28.2857 18.2041 28.2857 15.5764C28.2857 12.0528 26.886 8.67356 24.3944 6.182C21.9029 3.69045 18.5236 2.29071 15 2.29071Z" fill="#222222"/>
<path d="M12.4295 22.1766C12.053 22.1752 11.6835 22.0747 11.3581 21.8851C11.0303 21.6994 10.7581 21.4295 10.5697 21.1032C10.3813 20.7769 10.2836 20.4062 10.2867 20.0294V11.1237C10.2867 10.7476 10.3857 10.378 10.5738 10.0523C10.7619 9.72654 11.0324 9.45604 11.3581 9.26797C11.6839 9.0799 12.0534 8.98089 12.4296 8.9809C12.8057 8.9809 13.1752 9.07991 13.501 9.26798L21.2153 13.7208C21.541 13.9089 21.8115 14.1794 21.9995 14.5052C22.1876 14.8309 22.2866 15.2004 22.2866 15.5766C22.2866 15.9527 22.1876 16.3222 21.9995 16.6479C21.8115 16.9737 21.541 17.2442 21.2153 17.4323L13.501 21.8851C13.1756 22.0747 12.8061 22.1752 12.4295 22.1766ZM12.4295 10.6908C12.3541 10.6916 12.2802 10.7123 12.2153 10.7508C12.1499 10.7886 12.0956 10.843 12.058 10.9084C12.0203 10.9739 12.0007 11.0482 12.001 11.1237V20.0294C12.0007 20.1049 12.0203 20.1792 12.058 20.2447C12.0956 20.3101 12.1499 20.3645 12.2153 20.4023C12.2804 20.4399 12.3543 20.4597 12.4295 20.4597C12.5048 20.4597 12.5787 20.4399 12.6438 20.4023L20.3581 15.9494C20.4241 15.912 20.4789 15.8578 20.5171 15.7923C20.5553 15.7268 20.5754 15.6524 20.5754 15.5766C20.5754 15.5007 20.5553 15.4263 20.5171 15.3608C20.4789 15.2953 20.4241 15.2411 20.3581 15.2037L12.6438 10.7508C12.5789 10.7123 12.505 10.6916 12.4295 10.6908Z" fill="#222222"/>
</svg>
