<svg width="19" height="19" viewBox="0 0 19 19" fill="none" xmlns="http://www.w3.org/2000/svg">
<path d="M14.0601 10.9159C14.0221 10.8992 12.6374 10.2164 12.3904 10.1281C12.2881 10.0858 12.1792 10.0616 12.0685 10.0566C11.8808 10.0566 11.7243 10.1504 11.6014 10.3326C11.4639 10.5382 11.0448 11.0277 10.9151 11.1741C10.8984 11.1942 10.8749 11.2166 10.8615 11.2166C10.8492 11.2166 10.6346 11.1283 10.5698 11.1003C9.08337 10.4555 7.9557 8.90329 7.80147 8.64179C7.77911 8.60379 7.77911 8.58591 7.77911 8.58591C7.80137 8.55065 7.82846 8.51868 7.85958 8.49092C7.93446 8.41605 8.01605 8.31771 8.0954 8.22272L8.20716 8.08973C8.32228 7.95563 8.37369 7.85282 8.43292 7.73213L8.4631 7.67066C8.55855 7.47753 8.55142 7.24953 8.4441 7.06273C8.41168 6.9968 7.82717 5.58537 7.76458 5.43674C7.61482 5.07913 7.41812 4.91262 7.14319 4.91262L7.0359 4.91709C6.90625 4.92268 6.19768 5.01655 5.88475 5.21323C5.55282 5.42333 4.99066 6.09049 4.99066 7.26389C4.99066 8.32106 5.66123 9.31789 5.94846 9.69785L5.98757 9.75372C7.09066 11.3652 8.46533 12.5587 9.85788 13.1141C11.199 13.6505 11.8349 13.712 12.1959 13.712C12.3479 13.712 12.4698 13.7008 12.5759 13.6896L12.6441 13.6829C13.1079 13.6416 14.1261 13.1141 14.3574 12.4704C14.5407 11.9642 14.5888 11.4099 14.4669 11.2087C14.3842 11.0724 14.2412 11.0031 14.0601 10.9159Z" fill="#00AE31"/>
<path fill-rule="evenodd" clip-rule="evenodd" d="M0.338013 9.26089C0.338013 4.15494 4.52461 0 9.66789 0C14.8145 0 19 4.15383 19 9.26201C19 14.368 14.8145 18.5218 9.66901 18.5218C8.12837 18.5226 6.61117 18.1446 5.25106 17.421L0.322366 18.9878C0.233408 19.0169 0.135634 18.993 0.0701625 18.9261C0.00469135 18.8592 -0.0171192 18.761 0.0139033 18.6727L1.61769 13.9433C0.780589 12.5296 0.338013 10.9126 0.338013 9.26089ZM5.60199 15.3793C6.81014 16.1728 8.21722 16.5918 9.66789 16.5918C13.7427 16.5918 17.0598 13.303 17.0598 9.26089C17.0598 5.2177 13.7438 1.92996 9.66901 1.92996C5.59305 1.92996 2.27708 5.2177 2.27708 9.26089C2.27475 10.8073 2.76831 12.3137 3.68528 13.5589C3.73244 13.6238 3.74496 13.7076 3.71881 13.7835L2.92195 16.1359L5.39188 15.3503C5.46271 15.3277 5.53995 15.3384 5.60199 15.3793Z" fill="#00AE31"/>
</svg>
