<svg width="16" height="16" viewBox="0 0 16 16" fill="none" xmlns="http://www.w3.org/2000/svg">
<path d="M15.0712 14.1083L9.10495 8.14212L15.0712 2.17591C15.3763 1.8708 15.3763 1.37616 15.0712 1.07105C14.7661 0.765948 14.2714 0.765948 13.9663 1.07105L8.00009 7.03727L2.03388 1.07105C1.72877 0.765948 1.23413 0.765948 0.929024 1.07105C0.623919 1.37616 0.623919 1.8708 0.929024 2.17591L6.89524 8.14212L0.929024 14.1083C0.623919 14.4134 0.623919 14.9081 0.929024 15.2132C1.23413 15.5183 1.72877 15.5183 2.03388 15.2132L8.00009 9.24698L13.9663 15.2132C14.2714 15.5183 14.7661 15.5183 15.0712 15.2132C15.3763 14.9081 15.3763 14.4134 15.0712 14.1083Z" fill="white" stroke="white" stroke-width="0.54"/>
</svg>
