<svg width="7" height="7" viewBox="0 0 7 7" fill="none" xmlns="http://www.w3.org/2000/svg">
<path d="M4.48636 3.59545C4.42273 3.53182 4.42273 3.43636 4.48636 3.37273L6.87273 0.986364C6.93636 0.922727 6.96818 0.827273 6.96818 0.763636C6.96818 0.7 6.93636 0.604545 6.87273 0.540909L6.42727 0.0954545C6.36364 0.0318182 6.26818 0 6.20455 0C6.10909 0 6.04545 0.0318182 5.98182 0.0954545L3.59545 2.48182C3.53182 2.54545 3.43636 2.54545 3.37273 2.48182L0.986364 0.0954545C0.922727 0.0318182 0.827273 0 0.763636 0C0.7 0 0.604545 0.0318182 0.540909 0.0954545L0.0954545 0.540909C0.0318182 0.604545 0 0.7 0 0.763636C0 0.827273 0.0318182 0.922727 0.0954545 0.986364L2.48182 3.37273C2.54545 3.43636 2.54545 3.53182 2.48182 3.59545L0.0954545 5.98182C0.0318182 6.04545 0 6.14091 0 6.20455C0 6.26818 0.0318182 6.36364 0.0954545 6.42727L0.540909 6.87273C0.604545 6.93636 0.7 6.96818 0.763636 6.96818C0.827273 6.96818 0.922727 6.93636 0.986364 6.87273L3.37273 4.48636C3.43636 4.42273 3.53182 4.42273 3.59545 4.48636L5.98182 6.87273C6.04545 6.93636 6.14091 6.96818 6.20455 6.96818C6.26818 6.96818 6.36364 6.93636 6.42727 6.87273L6.87273 6.42727C6.93636 6.36364 6.96818 6.26818 6.96818 6.20455C6.96818 6.14091 6.93636 6.04545 6.87273 5.98182L4.48636 3.59545Z" fill="black"/>
</svg>
